<svg width="250" height="250" viewBox="0 0 250 250" fill="none" xmlns="http://www.w3.org/2000/svg">
<path d="M249.418 125.124C249.418 193.915 193.652 249.681 124.861 249.681C56.0705 249.681 0.304565 193.915 0.304565 125.124C0.304565 56.3335 56.0705 0.567505 124.861 0.567505C193.652 0.567505 249.418 56.3335 249.418 125.124Z" fill="url(#paint0_linear_206_745)"/>
<g clip-path="url(#clip0_206_745)">
<path d="M124.517 120.647C114.093 117.938 110.741 115.137 110.741 110.774C110.741 105.769 115.379 102.279 123.139 102.279C131.313 102.279 134.344 106.183 134.619 111.922H144.767C144.446 104.024 139.624 96.769 130.027 94.4271V84.3707H116.251V94.2893C107.343 96.218 100.18 102.004 100.18 110.866C100.18 121.474 108.95 126.754 121.762 129.831C133.242 132.586 135.538 136.627 135.538 140.898C135.538 144.066 133.288 149.117 123.139 149.117C113.68 149.117 109.96 144.893 109.455 139.474H99.353C99.9041 149.531 107.435 155.179 116.251 157.061V167.026H130.027V157.153C138.982 155.454 146.099 150.265 146.099 140.852C146.099 127.811 134.941 123.356 124.517 120.647Z" fill="#0067A3"/>
</g>
<defs>
<linearGradient id="paint0_linear_206_745" x1="124.861" y1="0.567505" x2="124.861" y2="249.681" gradientUnits="userSpaceOnUse">
<stop offset="0.331597" stop-color="#D9E8E7"/>
<stop offset="0.97743" stop-color="#D9E8E7" stop-opacity="0.15"/>
</linearGradient>
<clipPath id="clip0_206_745">
<rect width="110.207" height="110.207" fill="white" transform="translate(70.3318 70.5948)"/>
</clipPath>
</defs>
</svg>
