<svg width="250" height="250" viewBox="0 0 250 250" fill="none" xmlns="http://www.w3.org/2000/svg">
<path d="M249.113 125.124C249.113 193.915 193.348 249.681 124.557 249.681C55.766 249.681 0 193.915 0 125.124C0 56.3335 55.766 0.567505 124.557 0.567505C193.348 0.567505 249.113 56.3335 249.113 125.124Z" fill="url(#paint0_linear_206_741)"/>
<path d="M107.598 109.416L115.893 90.0046C120.457 79.3296 124.63 70.5948 125.168 70.5948C125.705 70.5948 129.721 79.1893 134.093 89.6924L142.038 108.792L161.137 116.736C171.64 121.108 180.234 125.141 180.234 125.698C180.234 126.256 171.64 130.289 161.137 134.66L142.038 142.605L134.093 161.704C129.721 172.207 125.705 180.802 125.168 180.802C124.63 180.802 120.457 172.067 115.893 161.392L107.598 141.981L88.8126 134.346C78.4815 130.147 70.0273 126.256 70.0273 125.698C70.0273 125.141 78.4815 121.25 88.8126 117.05L107.598 109.416Z" fill="#0067A3"/>
<defs>
<linearGradient id="paint0_linear_206_741" x1="124.557" y1="0.567505" x2="124.557" y2="249.681" gradientUnits="userSpaceOnUse">
<stop offset="0.331597" stop-color="#D9E8E7"/>
<stop offset="0.97743" stop-color="#D9E8E7" stop-opacity="0.15"/>
</linearGradient>
</defs>
</svg>
