<svg width="251" height="250" viewBox="0 0 251 250" fill="none" xmlns="http://www.w3.org/2000/svg">
<path d="M250.062 124.557C250.062 193.348 194.296 249.113 125.505 249.113C56.7142 249.113 0.948242 193.348 0.948242 124.557C0.948242 55.766 56.7142 0 125.505 0C194.296 0 250.062 55.766 250.062 124.557Z" fill="url(#paint0_linear_206_736)"/>
<path fill-rule="evenodd" clip-rule="evenodd" d="M115.054 80.7702C103.6 84.5229 93.2568 95.562 90.4133 107.067C87.1587 120.241 92.2466 134.571 104.97 148.057C111.072 154.527 112.303 156.498 112.303 159.805C112.303 165.373 119.258 171.05 126.079 171.05C132.9 171.05 139.855 165.373 139.855 159.805C139.855 156.498 141.085 154.527 147.188 148.057C151.502 143.485 156.111 137.053 158.381 132.437C161.788 125.511 162.241 123.511 162.241 115.39C162.241 107.949 161.703 105.097 159.43 100.479C155.851 93.2052 148.809 86.1565 141.667 82.6988C134.852 79.3995 122.067 78.473 115.054 80.7702ZM119.184 89.4007C101.38 95.2302 94.2487 112.293 102.595 129.094C104.461 132.852 108.657 138.663 111.916 142.008L117.844 148.091H126.224H134.604L140.393 141.968C155.097 126.42 157.127 109.452 145.751 97.1864C139.637 90.5947 126.919 86.8683 119.184 89.4007Z" fill="#0067A3"/>
<defs>
<linearGradient id="paint0_linear_206_736" x1="125.505" y1="0" x2="125.505" y2="249.113" gradientUnits="userSpaceOnUse">
<stop offset="0.331597" stop-color="#D9E8E7"/>
<stop offset="0.97743" stop-color="#D9E8E7" stop-opacity="0.15"/>
</linearGradient>
</defs>
</svg>
