<svg width="250" height="250" viewBox="0 0 250 250" fill="none" xmlns="http://www.w3.org/2000/svg">
<path d="M249.322 125.272C249.322 194.063 193.556 249.829 124.765 249.829C55.9743 249.829 0.208374 194.063 0.208374 125.272C0.208374 56.4814 55.9743 0.715454 124.765 0.715454C193.556 0.715454 249.322 56.4814 249.322 125.272Z" fill="url(#paint0_linear_206_761)"/>
<path fill-rule="evenodd" clip-rule="evenodd" d="M104.279 86.6184C100.16 91.169 103.326 98.2945 109.467 98.2945C115.346 98.2945 118.412 90.3608 114.056 86.4186C111.283 83.9091 106.645 84.0044 104.279 86.6184ZM138.468 95.8562C136.533 97.0363 129.509 104.395 122.857 112.21C106.091 131.911 102.47 135.029 96.349 135.035C83.6763 135.045 75.4005 148.514 81.7098 158.861C85.4373 164.977 90.2164 167.165 99.8538 167.169C105.065 167.173 109.492 166.523 111.563 165.452C113.394 164.505 120.768 156.886 127.95 148.519C145.213 128.407 148.196 125.847 154.366 125.842C167.002 125.831 175.267 112.345 168.968 102.015C165.209 95.8482 160.479 93.7106 150.595 93.7106C144.207 93.7106 141.077 94.2651 138.468 95.8562ZM104.279 104.986C102.837 106.58 102.391 109.276 102.43 116.179L102.479 125.272L109.298 117.81C113.049 113.706 116.127 109.524 116.137 108.517C116.187 103.584 107.807 101.089 104.279 104.986ZM141.072 105.546C139.68 107.009 132.342 115.576 124.765 124.586C117.188 133.594 109.594 141.697 107.89 142.59C106.184 143.483 102.181 144.214 98.9928 144.214C89.872 144.214 85.5498 150.344 90.8995 155.694C92.6892 157.484 94.7257 157.99 100.135 157.99C108.243 157.99 106.261 159.659 125.913 136.291C133.49 127.282 141.084 119.18 142.789 118.287C144.494 117.394 148.497 116.662 151.685 116.662C158.038 116.662 162.075 113.986 162.075 109.774C162.075 105.27 158.083 102.886 150.543 102.886C144.78 102.886 143.173 103.338 141.072 105.546ZM147.451 148.493L151.729 152.771L145.403 159.165L139.076 165.559L142.303 168.65L145.53 171.743L151.75 165.445L157.97 159.147L162.318 163.394L166.667 167.64V155.927V144.214H154.919H143.171L147.451 148.493Z" fill="#0067A3"/>
<defs>
<linearGradient id="paint0_linear_206_761" x1="124.765" y1="0.715454" x2="124.765" y2="249.829" gradientUnits="userSpaceOnUse">
<stop offset="0.331597" stop-color="#D9E8E7"/>
<stop offset="0.97743" stop-color="#D9E8E7" stop-opacity="0.15"/>
</linearGradient>
</defs>
</svg>
