<svg width="250" height="250" viewBox="0 0 250 250" fill="none" xmlns="http://www.w3.org/2000/svg">
<path d="M249.566 124.705C249.566 193.495 193.8 249.261 125.009 249.261C56.2185 249.261 0.452576 193.495 0.452576 124.705C0.452576 55.9139 56.2185 0.147949 125.009 0.147949C193.8 0.147949 249.566 55.9139 249.566 124.705Z" fill="url(#paint0_linear_206_756)"/>
<path fill-rule="evenodd" clip-rule="evenodd" d="M70.4799 105.241V139.159L73.2982 141.976C76.0648 144.744 76.4632 144.795 95.2844 144.795H114.452L108.113 138.149C102.007 131.746 101.681 131.083 99.2519 120.068C97.864 113.778 96.561 108.089 96.3555 107.425C96.15 106.761 96.6689 104.583 97.5081 102.585C99.1738 98.6259 102.681 97.1381 108.378 97.9738L111.807 98.4778V89.9562C111.807 80.4417 110.084 76.2791 104.874 73.2014C102.351 71.7101 98.4747 71.3232 86.0879 71.3232H70.4799V105.241ZM127.733 73.2565C122.484 76.5133 120.991 80.4773 120.991 91.1559V100.877L125.832 101.652C130.126 102.338 132.461 104.197 146.496 118.104L162.319 133.783V102.553V71.3232L146.534 71.3542C133.979 71.3783 130.132 71.7675 127.733 73.2565ZM106.074 108.92C106.08 110.764 107.708 117.803 109.043 121.753C109.43 122.899 111.484 121.531 115.859 117.209C119.303 113.808 121.738 110.672 121.269 110.239C120.464 109.495 109.506 106.911 107.159 106.911C106.559 106.911 106.071 107.816 106.074 108.92ZM131.323 119.399C131.323 121.893 129.423 123.704 126.17 124.308C124.915 124.541 123.697 125.759 123.464 127.013C122.86 130.267 121.05 132.167 118.555 132.167C117.369 132.167 116.399 132.562 116.399 133.044C116.399 133.527 123.116 140.624 131.327 148.816L146.254 163.71L154.56 155.403L162.867 147.097L147.973 132.17C139.78 123.96 132.684 117.243 132.2 117.243C131.718 117.243 131.323 118.213 131.323 119.399ZM161.406 162.352L153.107 170.706L157.474 174.969C159.877 177.315 162.871 179.234 164.128 179.234C167.099 179.234 178.391 167.801 178.391 164.795C178.391 163.522 176.436 160.571 174.048 158.239L169.704 153.998L161.406 162.352Z" fill="#0067A3"/>
<defs>
<linearGradient id="paint0_linear_206_756" x1="125.009" y1="0.147949" x2="125.009" y2="249.261" gradientUnits="userSpaceOnUse">
<stop offset="0.331597" stop-color="#D9E8E7"/>
<stop offset="0.97743" stop-color="#D9E8E7" stop-opacity="0.15"/>
</linearGradient>
</defs>
</svg>
