<svg width="250" height="250" viewBox="0 0 250 250" fill="none" xmlns="http://www.w3.org/2000/svg">
<path d="M249.113 124.557C249.113 193.348 193.348 249.113 124.557 249.113C55.766 249.113 0 193.348 0 124.557C0 55.766 55.766 0 124.557 0C193.348 0 249.113 55.766 249.113 124.557Z" fill="url(#paint0_linear_206_751)"/>
<path fill-rule="evenodd" clip-rule="evenodd" d="M114.958 78.232C112.837 78.8428 109.221 80.5407 106.923 82.0043C90.2112 92.6508 81.5278 113.357 79.5728 147.23L78.8599 159.57H89.6751C99.4801 159.57 100.908 159.854 104.962 162.609C116.884 170.709 133.378 170.709 145.3 162.609C149.353 159.854 150.781 159.57 160.586 159.57H171.402L170.689 147.23C168.474 108.875 156.155 84.6344 135.755 78.4949C129.803 76.7041 120.672 76.5881 114.958 78.232ZM102.539 119.608C98.8694 121.381 97.1658 126.539 97.9005 133.652C99.4744 148.902 110.26 158.908 125.131 158.915C139.955 158.923 150.792 148.863 152.363 133.635C153.119 126.317 151.366 121.354 147.385 119.54C143.72 117.87 106.016 117.927 102.539 119.608Z" fill="#0067A3"/>
<defs>
<linearGradient id="paint0_linear_206_751" x1="124.557" y1="0" x2="124.557" y2="249.113" gradientUnits="userSpaceOnUse">
<stop offset="0.331597" stop-color="#D9E8E7"/>
<stop offset="0.97743" stop-color="#D9E8E7" stop-opacity="0.15"/>
</linearGradient>
</defs>
</svg>
